# Blender 4.5.1 LTS
# www.blender.org
mtllib prisonbed.mtl
o bedside
v -0.500000 0.000000 1.000000
v -0.500000 0.250000 1.000000
v -0.500000 -0.000000 -1.000000
v -0.500000 0.250000 -1.000000
vn -1.0000 -0.0000 -0.0000
vt 1.000000 -0.015625
vt 1.000000 0.406250
vt 0.000000 0.406250
vt 0.000000 -0.015625
s 1
usemtl bedframe_s
f 1/1/1 2/2/1 4/3/1 3/4/1
o bedside.001
v 0.500000 0.000000 1.000000
v 0.500000 0.250000 1.000000
v 0.500000 -0.000000 -1.000000
v 0.500000 0.250000 -1.000000
vn -1.0000 -0.0000 -0.0000
vt 1.000000 -0.015625
vt 1.000000 0.406250
vt 0.000000 0.406250
vt 0.000000 -0.015625
s 1
usemtl bedframe_s
f 5/5/2 6/6/2 8/7/2 7/8/2
o bedside.002
v -0.500000 0.000000 1.000000
v -0.500000 0.250000 1.000000
v 0.500000 0.000000 1.000000
v 0.500000 0.250000 1.000000
vn -0.0000 -0.0000 -1.0000
vt 1.000000 -0.015625
vt 1.000000 0.406250
vt 0.000000 0.406250
vt 0.000000 -0.015625
s 1
usemtl bedframe_f
f 9/9/3 10/10/3 12/11/3 11/12/3
o bedside.003
v -0.500000 -0.000000 -1.000000
v -0.500000 0.250000 -1.000000
v 0.500000 -0.000000 -1.000000
v 0.500000 0.250000 -1.000000
vn -0.0000 -0.0000 -1.0000
vt 1.000000 -0.015625
vt 1.000000 0.406250
vt 0.000000 0.406250
vt 0.000000 -0.015625
s 1
usemtl bedframe_f
f 13/13/4 14/14/4 16/15/4 15/16/4
o bedside_b
v -0.500000 -0.000000 -1.000000
v -0.500000 0.250000 -1.000000
v -0.500000 0.000000 1.000000
v -0.500000 0.250000 1.000000
vn 1.0000 -0.0000 -0.0000
vt 1.000000 -0.015625
vt 1.000000 0.406250
vt 0.000000 0.406250
vt 0.000000 -0.015625
s 1
usemtl bedframe_s
f 17/17/5 18/18/5 20/19/5 19/20/5
o bedside_b.001
v 0.500000 -0.000000 -1.000000
v 0.500000 0.250000 -1.000000
v 0.500000 0.000000 1.000000
v 0.500000 0.250000 1.000000
vn 1.0000 -0.0000 -0.0000
vt 1.000000 -0.015625
vt 1.000000 0.406250
vt 0.000000 0.406250
vt 0.000000 -0.015625
s 1
usemtl bedframe_s
f 21/21/6 22/22/6 24/23/6 23/24/6
o bedside_b.002
v 0.500000 0.000000 1.000000
v 0.500000 0.250000 1.000000
v -0.500000 0.000000 1.000000
v -0.500000 0.250000 1.000000
vn -0.0000 -0.0000 1.0000
vt 1.000000 -0.015625
vt 1.000000 0.406250
vt 0.000000 0.406250
vt 0.000000 -0.015625
s 1
usemtl bedframe_f
f 25/25/7 26/26/7 28/27/7 27/28/7
o bedside_b.003
v 0.500000 -0.000000 -1.000000
v 0.500000 0.250000 -1.000000
v -0.500000 -0.000000 -1.000000
v -0.500000 0.250000 -1.000000
vn -0.0000 -0.0000 1.0000
vt 1.000000 -0.015625
vt 1.000000 0.406250
vt 0.000000 0.406250
vt 0.000000 -0.015625
s 1
usemtl bedframe_f
f 29/29/8 30/30/8 32/31/8 31/32/8
o cube
v 0.500000 0.375000 1.000000
v 0.515625 0.359375 -1.000000
v 0.500000 0.250000 1.000000
v 0.515625 0.250000 -1.000000
v -0.500000 0.359375 1.015625
v -0.515625 0.375000 -1.015625
v -0.500000 0.250000 1.015625
v -0.515625 0.250000 -1.015625
vn 1.0000 -0.0000 0.0078
vn -1.0000 -0.0000 0.0077
vn 0.0153 0.9999 -0.0077
vn -0.0000 -1.0000 -0.0000
vn 0.0156 -0.0000 0.9999
vn 0.0151 -0.0000 -0.9999
vt 1.000000 0.500000
vt 1.000000 1.000000
vt 0.000000 1.000000
vt 0.000000 0.500000
vt 1.000000 0.000000
vt 0.000000 0.000000
vt 0.500000 0.500000
vt 0.500000 1.000000
s 1
usemtl mattress_side
f 36/33/9 34/34/9 33/35/9 35/36/9
f 39/33/10 37/34/10 38/35/10 40/36/10
f 35/39/13 33/40/13 37/35/13 39/36/13
f 40/39/14 38/40/14 34/35/14 36/36/14
usemtl mattress
f 33/37/11 34/34/11 38/35/11 37/38/11
f 36/37/12 35/34/12 39/35/12 40/38/12
o pillow
v 0.339456 0.444469 0.928717
v 0.336159 0.410704 0.434881
v 0.355081 0.351788 0.945033
v 0.398659 0.286773 0.451197
v -0.360815 0.467187 0.848284
v -0.317237 0.402172 0.385698
v -0.392065 0.312006 0.880225
v -0.348487 0.278241 0.386389
v 0.355081 0.413754 0.936875
v -0.392065 0.405221 0.872067
v -0.348487 0.340207 0.378231
v 0.398659 0.348739 0.443039
vn 0.8890 0.4575 0.0195
vn 0.8892 0.4572 0.0183
vn -0.8776 0.4592 -0.1379
vn -0.0079 0.9976 -0.0682
vn 0.0411 -0.9901 0.1340
vn 0.0868 -0.0434 -0.9953
vn 0.0868 -0.0435 -0.9953
vn -0.0839 0.3936 0.9154
vn -0.0839 0.3937 0.9154
vn -0.0872 0.1300 0.9877
vn -0.9962 -0.0076 -0.0869
vn 0.0872 -0.1300 -0.9877
vn 0.9962 0.0114 0.0864
vt 0.082031 0.257812
vt 0.082031 0.173828
vt 0.921875 0.173828
vt 0.921875 0.257812
vt 0.054688 0.214844
vt 0.054688 0.150391
vt 0.863281 0.150391
vt 0.863281 0.214844
vt 0.894531 0.093750
vt 0.894531 0.886719
vt 0.089844 0.886719
vt 0.089844 0.093750
vt 0.914062 0.082031
vt 0.914062 0.898438
vt 0.074219 0.898438
vt 0.074219 0.082031
vt 0.046875 0.250000
vt 0.046875 0.171875
vt 0.933594 0.171875
vt 0.933594 0.250000
vt 0.078125 0.324219
vt 0.078125 0.234375
vt 0.875000 0.234375
vt 0.875000 0.324219
vt 0.875000 0.144531
vt 0.078125 0.144531
vt 0.863281 0.085938
vt 0.054688 0.085938
vt 0.933594 0.093750
vt 0.046875 0.093750
vt 0.921875 0.089844
vt 0.082031 0.089844
s 1
usemtl pillow
f 41/41/15 49/42/16 52/43/16 42/44/16
f 46/45/17 51/46/17 50/47/17 45/48/17
f 41/49/18 42/50/18 46/51/18 45/52/18
f 44/53/19 43/54/19 47/55/19 48/56/19
f 42/57/20 52/58/21 51/59/20 46/60/20
f 45/61/22 50/62/23 49/63/22 41/64/23
f 43/65/24 49/63/24 50/62/24 47/66/24
f 47/67/25 50/47/25 51/46/25 48/68/25
f 48/69/26 51/59/26 52/58/26 44/70/26
f 44/71/27 52/43/27 49/42/27 43/72/27
